<svg width="60" height="60" viewBox="0 0 60 60" fill="none" xmlns="http://www.w3.org/2000/svg">
<path d="M58.5 30C58.5 45.7401 45.7401 58.5 30 58.5C14.2599 58.5 1.5 45.7401 1.5 30C1.5 14.2599 14.2599 1.5 30 1.5C45.7401 1.5 58.5 14.2599 58.5 30Z" stroke="#96784B" stroke-width="3"/>
<path d="M23.0682 41V37.9545L31.1477 30.0341C31.9205 29.2538 32.5644 28.5606 33.0795 27.9545C33.5947 27.3485 33.9811 26.7614 34.2386 26.1932C34.4962 25.625 34.625 25.0189 34.625 24.375C34.625 23.6402 34.4583 23.0114 34.125 22.4886C33.7917 21.9583 33.3333 21.5492 32.75 21.2614C32.1667 20.9735 31.5038 20.8295 30.7614 20.8295C29.9962 20.8295 29.3258 20.9886 28.75 21.3068C28.1742 21.6174 27.7273 22.0606 27.4091 22.6364C27.0985 23.2121 26.9432 23.8977 26.9432 24.6932H22.9318C22.9318 23.2159 23.2689 21.9318 23.9432 20.8409C24.6174 19.75 25.5455 18.9053 26.7273 18.3068C27.9167 17.7083 29.2803 17.4091 30.8182 17.4091C32.3788 17.4091 33.75 17.7008 34.9318 18.2841C36.1136 18.8674 37.0303 19.6667 37.6818 20.6818C38.3409 21.697 38.6705 22.8561 38.6705 24.1591C38.6705 25.0303 38.5038 25.8864 38.1705 26.7273C37.8371 27.5682 37.25 28.5 36.4091 29.5227C35.5758 30.5455 34.4053 31.7841 32.8977 33.2386L28.8864 37.3182V37.4773H39.0227V41H23.0682Z" fill="#96784B"/>
</svg>
