<svg width="60" height="60" viewBox="0 0 60 60" fill="none" xmlns="http://www.w3.org/2000/svg">
<path d="M58.5 30C58.5 45.7401 45.7401 58.5 30 58.5C14.2599 58.5 1.5 45.7401 1.5 30C1.5 14.2599 14.2599 1.5 30 1.5C45.7401 1.5 58.5 14.2599 58.5 30Z" stroke="#787878" stroke-width="3"/>
<path d="M31.4205 41.3182C29.7841 41.3182 28.3295 41.0379 27.0568 40.4773C25.7917 39.9167 24.7917 39.1364 24.0568 38.1364C23.322 37.1364 22.9318 35.9811 22.8864 34.6705H27.1591C27.197 35.2992 27.4053 35.8485 27.7841 36.3182C28.1629 36.7803 28.6667 37.1402 29.2955 37.3977C29.9242 37.6553 30.6288 37.7841 31.4091 37.7841C32.2424 37.7841 32.9811 37.6402 33.625 37.3523C34.2689 37.0568 34.7727 36.6477 35.1364 36.125C35.5 35.6023 35.678 35 35.6705 34.3182C35.678 33.6136 35.4962 32.9924 35.125 32.4545C34.7538 31.9167 34.2159 31.4962 33.5114 31.1932C32.8144 30.8902 31.9735 30.7386 30.9886 30.7386H28.9318V27.4886H30.9886C31.7992 27.4886 32.5076 27.3485 33.1136 27.0682C33.7273 26.7879 34.2083 26.3939 34.5568 25.8864C34.9053 25.3712 35.0758 24.7765 35.0682 24.1023C35.0758 23.4432 34.928 22.8712 34.625 22.3864C34.3295 21.8939 33.9091 21.5114 33.3636 21.2386C32.8258 20.9659 32.1932 20.8295 31.4659 20.8295C30.7538 20.8295 30.0947 20.9583 29.4886 21.2159C28.8826 21.4735 28.3939 21.8409 28.0227 22.3182C27.6515 22.7879 27.4545 23.3485 27.4318 24H23.375C23.4053 22.697 23.7803 21.553 24.5 20.5682C25.2273 19.5758 26.197 18.803 27.4091 18.25C28.6212 17.6894 29.9811 17.4091 31.4886 17.4091C33.0417 17.4091 34.3902 17.7008 35.5341 18.2841C36.6856 18.8598 37.5758 19.6364 38.2045 20.6136C38.8333 21.5909 39.1477 22.6705 39.1477 23.8523C39.1553 25.1629 38.7689 26.2614 37.9886 27.1477C37.2159 28.0341 36.2008 28.6136 34.9432 28.8864V29.0682C36.5795 29.2955 37.8333 29.9015 38.7045 30.8864C39.5833 31.8636 40.0189 33.0795 40.0114 34.5341C40.0114 35.8371 39.6402 37.0038 38.8977 38.0341C38.1629 39.0568 37.1477 39.8598 35.8523 40.4432C34.5644 41.0265 33.0871 41.3182 31.4205 41.3182Z" fill="#787878"/>
</svg>
