<svg width="152" height="141" viewBox="0 0 152 141" fill="none" xmlns="http://www.w3.org/2000/svg">
<mask id="mask0_128_142" style="mask-type:alpha" maskUnits="userSpaceOnUse" x="0" y="0" width="152" height="141">
<rect x="0.373413" y="0.5" width="150.902" height="140.345" fill="#D9D9D9"/>
</mask>
<g mask="url(#mask0_128_142)">
<path d="M37.1558 100.496C42.5003 96.695 48.4735 93.698 55.0754 91.5051C61.6774 89.3122 68.5937 88.2158 75.8244 88.2158C83.0552 88.2158 89.9715 89.3122 96.5735 91.5051C103.175 93.698 109.149 96.695 114.493 100.496C118.161 96.5 121.016 91.968 123.06 86.9C125.103 81.832 126.125 76.4228 126.125 70.6726C126.125 57.7101 121.226 46.6725 111.428 37.5598C101.63 28.4471 89.7619 23.8908 75.8244 23.8908C61.887 23.8908 50.0192 28.4471 40.221 37.5598C30.4229 46.6725 25.5238 57.7101 25.5238 70.6726C25.5238 76.4228 26.5455 81.832 28.589 86.9C30.6324 91.968 33.488 96.5 37.1558 100.496ZM75.8244 76.5203C69.6417 76.5203 64.4282 74.5467 60.1841 70.5995C55.94 66.6523 53.8179 61.8035 53.8179 56.0533C53.8179 50.303 55.94 45.4543 60.1841 41.507C64.4282 37.5598 69.6417 35.5862 75.8244 35.5862C82.0072 35.5862 87.2207 37.5598 91.4648 41.507C95.7089 45.4543 97.831 50.303 97.831 56.0533C97.831 61.8035 95.7089 66.6523 91.4648 70.5995C87.2207 74.5467 82.0072 76.5203 75.8244 76.5203ZM75.8244 129.15C67.1266 129.15 58.9528 127.615 51.3029 124.545C43.653 121.475 36.9986 117.308 31.3398 112.045C25.681 106.782 21.2011 100.593 17.9001 93.4787C14.5991 86.364 12.9486 78.7619 12.9486 70.6726C12.9486 62.5832 14.5991 54.9812 17.9001 47.8664C21.2011 40.7517 25.681 34.5629 31.3398 29.2999C36.9986 24.037 43.653 19.8705 51.3029 16.8004C58.9528 13.7303 67.1266 12.1953 75.8244 12.1953C84.5223 12.1953 92.6961 13.7303 100.346 16.8004C107.996 19.8705 114.65 24.037 120.309 29.2999C125.968 34.5629 130.448 40.7517 133.749 47.8664C137.05 54.9812 138.7 62.5832 138.7 70.6726C138.7 78.7619 137.05 86.364 133.749 93.4787C130.448 100.593 125.968 106.782 120.309 112.045C114.65 117.308 107.996 121.475 100.346 124.545C92.6961 127.615 84.5223 129.15 75.8244 129.15ZM75.8244 117.454C81.3785 117.454 86.6181 116.699 91.5434 115.188C96.4687 113.678 100.975 111.509 105.062 108.683C100.975 105.856 96.4687 103.688 91.5434 102.177C86.6181 100.667 81.3785 99.9112 75.8244 99.9112C70.2704 99.9112 65.0308 100.667 60.1055 102.177C55.1802 103.688 50.6741 105.856 46.5872 108.683C50.6741 111.509 55.1802 113.678 60.1055 115.188C65.0308 116.699 70.2704 117.454 75.8244 117.454ZM75.8244 64.8248C78.5491 64.8248 80.8021 63.9964 82.5836 62.3396C84.3651 60.6827 85.2558 58.5873 85.2558 56.0533C85.2558 53.5192 84.3651 51.4238 82.5836 49.767C80.8021 48.1101 78.5491 47.2817 75.8244 47.2817C73.0998 47.2817 70.8468 48.1101 69.0653 49.767C67.2838 51.4238 66.3931 53.5192 66.3931 56.0533C66.3931 58.5873 67.2838 60.6827 69.0653 62.3396C70.8468 63.9964 73.0998 64.8248 75.8244 64.8248Z" fill="#96784B"/>
</g>
</svg>
