<svg width="151" height="141" viewBox="0 0 151 141" fill="none" xmlns="http://www.w3.org/2000/svg">
<mask id="mask0_91_868" style="mask-type:alpha" maskUnits="userSpaceOnUse" x="0" y="0" width="151" height="141">
<rect width="150.902" height="140.345" fill="#D9D9D9"/>
</mask>
<g mask="url(#mask0_91_868)">
<path d="M36.7824 99.996C42.1268 96.195 48.1 93.198 54.702 91.0051C61.304 88.8122 68.2203 87.7157 75.451 87.7157C82.6817 87.7157 89.5981 88.8122 96.2001 91.0051C102.802 93.198 108.775 96.195 114.12 99.996C117.787 96 120.643 91.468 122.687 86.4C124.73 81.332 125.752 75.9228 125.752 70.1726C125.752 57.2101 120.853 46.1725 111.054 37.0598C101.256 27.9471 89.3885 23.3908 75.451 23.3908C61.5136 23.3908 49.6457 27.9471 39.8476 37.0598C30.0494 46.1725 25.1504 57.2101 25.1504 70.1726C25.1504 75.9228 26.1721 81.332 28.2156 86.4C30.259 91.468 33.1146 96 36.7824 99.996ZM75.451 76.0203C69.2682 76.0203 64.0548 74.0467 59.8107 70.0995C55.5665 66.1523 53.4445 61.3035 53.4445 55.5533C53.4445 49.803 55.5665 44.9543 59.8107 41.007C64.0548 37.0598 69.2682 35.0862 75.451 35.0862C81.6338 35.0862 86.8473 37.0598 91.0914 41.007C95.3355 44.9543 97.4576 49.803 97.4576 55.5533C97.4576 61.3035 95.3355 66.1523 91.0914 70.0995C86.8473 74.0467 81.6338 76.0203 75.451 76.0203ZM75.451 128.65C66.7532 128.65 58.5793 127.115 50.9295 124.045C43.2796 120.975 36.6252 116.808 30.9664 111.545C25.3076 106.282 20.8276 100.093 17.5267 92.9787C14.2257 85.864 12.5752 78.2619 12.5752 70.1726C12.5752 62.0832 14.2257 54.4812 17.5267 47.3664C20.8276 40.2517 25.3076 34.0629 30.9664 28.7999C36.6252 23.537 43.2796 19.3705 50.9295 16.3004C58.5793 13.2303 66.7532 11.6953 75.451 11.6953C84.1489 11.6953 92.3227 13.2303 99.9726 16.3004C107.623 19.3705 114.277 23.537 119.936 28.7999C125.595 34.0629 130.074 40.2517 133.375 47.3664C136.676 54.4812 138.327 62.0832 138.327 70.1726C138.327 78.2619 136.676 85.864 133.375 92.9787C130.074 100.093 125.595 106.282 119.936 111.545C114.277 116.808 107.623 120.975 99.9726 124.045C92.3227 127.115 84.1489 128.65 75.451 128.65ZM75.451 116.954C81.0051 116.954 86.2447 116.199 91.17 114.688C96.0953 113.178 100.601 111.009 104.688 108.183C100.601 105.356 96.0953 103.188 91.17 101.677C86.2447 100.167 81.0051 99.4112 75.451 99.4112C69.897 99.4112 64.6573 100.167 59.7321 101.677C54.8068 103.188 50.3007 105.356 46.2138 108.183C50.3007 111.009 54.8068 113.178 59.7321 114.688C64.6573 116.199 69.897 116.954 75.451 116.954ZM75.451 64.3248C78.1756 64.3248 80.4287 63.4964 82.2102 61.8396C83.9917 60.1827 84.8824 58.0873 84.8824 55.5533C84.8824 53.0192 83.9917 50.9238 82.2102 49.267C80.4287 47.6101 78.1756 46.7817 75.451 46.7817C72.7264 46.7817 70.4734 47.6101 68.6919 49.267C66.9104 50.9238 66.0197 53.0192 66.0197 55.5533C66.0197 58.0873 66.9104 60.1827 68.6919 61.8396C70.4734 63.4964 72.7264 64.3248 75.451 64.3248Z" fill="black"/>
</g>
</svg>
