<svg width="127" height="118" viewBox="0 0 127 118" fill="none" xmlns="http://www.w3.org/2000/svg">
<path d="M25.1559 88.496C30.5004 84.695 36.4736 81.698 43.0755 79.5051C49.6775 77.3122 56.5938 76.2158 63.8246 76.2158C71.0553 76.2158 77.9716 77.3122 84.5736 79.5051C91.1756 81.698 97.1488 84.695 102.493 88.496C106.161 84.5 109.017 79.968 111.06 74.9C113.104 69.832 114.125 64.4228 114.125 58.6726C114.125 45.7101 109.226 34.6725 99.428 25.5598C89.6299 16.4471 77.762 11.8908 63.8246 11.8908C49.8871 11.8908 38.0193 16.4471 28.2211 25.5598C18.423 34.6725 13.5239 45.7101 13.5239 58.6726C13.5239 64.4228 14.5456 69.832 16.5891 74.9C18.6326 79.968 21.4882 84.5 25.1559 88.496ZM63.8246 64.5203C57.6418 64.5203 52.4283 62.5467 48.1842 58.5995C43.9401 54.6523 41.818 49.8035 41.818 44.0533C41.818 38.303 43.9401 33.4543 48.1842 29.507C52.4283 25.5598 57.6418 23.5862 63.8246 23.5862C70.0074 23.5862 75.2208 25.5598 79.4649 29.507C83.709 33.4543 85.8311 38.303 85.8311 44.0533C85.8311 49.8035 83.709 54.6523 79.4649 58.5995C75.2208 62.5467 70.0074 64.5203 63.8246 64.5203ZM63.8246 117.15C55.1267 117.15 46.9529 115.615 39.303 112.545C31.6531 109.475 24.9987 105.308 19.3399 100.045C13.6811 94.7823 9.20118 88.5934 5.9002 81.4787C2.59922 74.364 0.94873 66.7619 0.94873 58.6726C0.94873 50.5832 2.59922 42.9812 5.9002 35.8664C9.20118 28.7517 13.6811 22.5629 19.3399 17.2999C24.9987 12.037 31.6531 7.87045 39.303 4.8004C46.9529 1.73034 55.1267 0.195312 63.8246 0.195312C72.5224 0.195312 80.6963 1.73034 88.3461 4.8004C95.996 7.87045 102.65 12.037 108.309 17.2999C113.968 22.5629 118.448 28.7517 121.749 35.8664C125.05 42.9812 126.7 50.5832 126.7 58.6726C126.7 66.7619 125.05 74.364 121.749 81.4787C118.448 88.5934 113.968 94.7823 108.309 100.045C102.65 105.308 95.996 109.475 88.3461 112.545C80.6963 115.615 72.5224 117.15 63.8246 117.15ZM63.8246 105.454C69.3786 105.454 74.6182 104.699 79.5435 103.188C84.4688 101.678 88.9749 99.5092 93.0618 96.6828C88.9749 93.8564 84.4688 91.6879 79.5435 90.1772C74.6182 88.6665 69.3786 87.9112 63.8246 87.9112C58.2705 87.9112 53.0309 88.6665 48.1056 90.1772C43.1803 91.6879 38.6742 93.8564 34.5873 96.6828C38.6742 99.5092 43.1803 101.678 48.1056 103.188C53.0309 104.699 58.2705 105.454 63.8246 105.454ZM63.8246 52.8248C66.5492 52.8248 68.8022 51.9964 70.5837 50.3396C72.3652 48.6827 73.2559 46.5873 73.2559 44.0533C73.2559 41.5192 72.3652 39.4238 70.5837 37.767C68.8022 36.1101 66.5492 35.2817 63.8246 35.2817C61.0999 35.2817 58.8469 36.1101 57.0654 37.767C55.2839 39.4238 54.3932 41.5192 54.3932 44.0533C54.3932 46.5873 55.2839 48.6827 57.0654 50.3396C58.8469 51.9964 61.0999 52.8248 63.8246 52.8248Z" fill="white"/>
</svg>
