<svg width="57" height="47" viewBox="0 0 57 47" fill="none" xmlns="http://www.w3.org/2000/svg">
<path d="M28.4929 46.4297L24.424 43.1708C19.7004 39.3688 15.7953 36.0891 12.7086 33.3316C9.62186 30.5741 7.16653 28.0986 5.34256 25.9052C3.51859 23.7117 2.24416 21.6958 1.51925 19.8575C0.794339 18.0191 0.431885 16.139 0.431885 14.2172C0.431885 10.2898 1.90509 7.01007 4.85149 4.37792C7.7979 1.74576 11.4692 0.429688 15.8654 0.429688C18.2974 0.429688 20.6124 0.88927 22.8105 1.80843C25.0086 2.7276 26.9028 4.02278 28.4929 5.69399C30.083 4.02278 31.9771 2.7276 34.1752 1.80843C36.3734 0.88927 38.6884 0.429688 41.1203 0.429688C45.5166 0.429688 49.1879 1.74576 52.1343 4.37792C55.0807 7.01007 56.5539 10.2898 56.5539 14.2172C56.5539 16.139 56.1914 18.0191 55.4665 19.8575C54.7416 21.6958 53.4672 23.7117 51.6432 25.9052C49.8193 28.0986 47.3639 30.5741 44.2772 33.3316C41.1905 36.0891 37.2853 39.3688 32.5617 43.1708L28.4929 46.4297ZM28.4929 39.6613C32.9827 36.0682 36.6773 32.9869 39.577 30.4174C42.4766 27.8479 44.7683 25.6127 46.4519 23.7117C48.1356 21.8107 49.3048 20.1186 49.9596 18.6354C50.6143 17.1522 50.9417 15.6795 50.9417 14.2172C50.9417 11.7103 50.0063 9.62133 48.1356 7.95012C46.2649 6.27891 43.9264 5.44331 41.1203 5.44331C38.9222 5.44331 36.8878 5.9969 35.0171 7.10407C33.1463 8.21125 31.8602 9.62133 31.1587 11.3343H25.8271C25.1256 9.62133 23.8394 8.21125 21.9687 7.10407C20.098 5.9969 18.0635 5.44331 15.8654 5.44331C13.0593 5.44331 10.7209 6.27891 8.85019 7.95012C6.97945 9.62133 6.04409 11.7103 6.04409 14.2172C6.04409 15.6795 6.37146 17.1522 7.02622 18.6354C7.68098 20.1186 8.85019 21.8107 10.5338 23.7117C12.2175 25.6127 14.5092 27.8479 17.4088 30.4174C20.3084 32.9869 24.0031 36.0682 28.4929 39.6613Z" fill="#000130"/>
</svg>
