<svg width="57" height="46" viewBox="0 0 57 46" fill="none" xmlns="http://www.w3.org/2000/svg">
<path d="M16 3L5 6L4 14.25L3 22.5L25.5 42.5L42.5 30L52 15.5L47.5 5L35.5 3L25.5 7.5L16 3Z" fill="#FF0000"/>
<path d="M28.0305 46L23.9661 42.7411C19.2476 38.9391 15.3467 35.6594 12.2633 32.9019C9.17998 30.1444 6.72732 27.6689 4.90534 25.4755C3.08335 23.282 1.8103 21.2661 1.08618 19.4278C0.362061 17.5895 0 15.7094 0 13.7875C0 9.86013 1.4716 6.58038 4.4148 3.94823C7.358 1.31608 11.0253 0 15.4168 0C17.8461 0 20.1586 0.459582 22.3543 1.37875C24.55 2.29791 26.4421 3.5931 28.0305 5.26431C29.6189 3.5931 31.5109 2.29791 33.7067 1.37875C35.9024 0.459582 38.2149 0 40.6442 0C45.0356 0 48.703 1.31608 51.6462 3.94823C54.5894 6.58038 56.061 9.86013 56.061 13.7875C56.061 15.7094 55.6989 17.5895 54.9748 19.4278C54.2507 21.2661 52.9776 23.282 51.1556 25.4755C49.3337 27.6689 46.881 30.1444 43.7976 32.9019C40.7143 35.6594 36.8134 38.9391 32.0949 42.7411L28.0305 46ZM28.0305 39.2316C32.5154 35.6385 36.206 32.5572 39.1025 29.9877C41.999 27.4183 44.2882 25.183 45.97 23.282C47.6518 21.381 48.8198 19.6889 49.4738 18.2057C50.1279 16.7225 50.4549 15.2498 50.4549 13.7875C50.4549 11.2807 49.5205 9.19164 47.6518 7.52044C45.7831 5.84923 43.4473 5.01362 40.6442 5.01362C38.4485 5.01362 36.4163 5.56721 34.5476 6.67439C32.6789 7.78156 31.3941 9.19164 30.6934 10.9046H25.3676C24.6668 9.19164 23.3821 7.78156 21.5134 6.67439C19.6447 5.56721 17.6125 5.01362 15.4168 5.01362C12.6137 5.01362 10.2778 5.84923 8.40915 7.52044C6.54045 9.19164 5.6061 11.2807 5.6061 13.7875C5.6061 15.2498 5.93312 16.7225 6.58716 18.2057C7.24121 19.6889 8.40915 21.381 10.091 23.282C11.7728 25.183 14.062 27.4183 16.9584 29.9877C19.8549 32.5572 23.5456 35.6385 28.0305 39.2316Z" fill="#FF0000"/>
</svg>
