<svg width="33" height="32" viewBox="0 0 33 32" fill="none" xmlns="http://www.w3.org/2000/svg">
<mask id="mask0_250_412" style="mask-type:alpha" maskUnits="userSpaceOnUse" x="1" y="0" width="32" height="32">
<rect x="1" y="32" width="32" height="32" transform="rotate(-90 1 32)" fill="#D9D9D9"/>
</mask>
<g mask="url(#mask0_250_412)">
<path d="M28.0999 27.1001L16.5666 27.1001L16.5666 20.9001L28.0999 20.9001L28.0999 27.1001ZM28.0999 19.1001L5.8999 19.1001L5.8999 12.9001L28.0999 12.9001L28.0999 19.1001ZM28.0999 11.1001L12.5666 11.1001L12.5666 4.9001L28.0999 4.9001L28.0999 11.1001Z" fill="white"/>
</g>
<mask id="mask1_250_412" style="mask-type:alpha" maskUnits="userSpaceOnUse" x="0" y="0" width="32" height="32">
<rect x="32" width="32" height="32" transform="rotate(90 32 0)" fill="#D9D9D9"/>
</mask>
<g mask="url(#mask1_250_412)">
<path d="M4.9001 4.8999L16.4334 4.8999L16.4334 11.0999L4.9001 11.0999L4.9001 4.8999ZM4.9001 12.8999L27.1001 12.8999L27.1001 19.0999L4.9001 19.0999L4.9001 12.8999ZM4.9001 20.8999L20.4334 20.8999L20.4334 27.0999L4.9001 27.0999L4.9001 20.8999Z" fill="white"/>
</g>
</svg>
