<svg width="32" height="32" viewBox="0 0 32 32" fill="none" xmlns="http://www.w3.org/2000/svg">
<g clip-path="url(#clip0_161_416)">
<path d="M10 24V0H6V24H1L8 31L15 24H10Z" fill="white"/>
<path d="M28.9998 14H20.9998C20.6308 14 20.2918 13.797 20.1178 13.472C19.9438 13.147 19.9628 12.752 20.1678 12.445L27.1308 2H20.9998C20.4478 2 19.9998 1.552 19.9998 1C19.9998 0.448 20.4478 0 20.9998 0H28.9998C29.3688 0 29.7078 0.203 29.8818 0.528C30.0558 0.853 30.0368 1.248 29.8318 1.555L22.8688 12H28.9998C29.5518 12 29.9998 12.448 29.9998 13C29.9998 13.552 29.5518 14 28.9998 14Z" fill="white"/>
<path d="M31.8939 30.553L25.8939 18.553C25.7249 18.214 25.3779 18 24.9999 18C24.6219 18 24.2749 18.214 24.1049 18.553L18.1049 30.553C17.8579 31.047 18.0579 31.648 18.5519 31.895C18.6959 31.967 18.8479 32.001 18.9989 32.001C19.3659 32.001 19.7189 31.798 19.8939 31.448L21.6179 28.001H28.3819L30.1059 31.448C30.3529 31.942 30.9539 32.142 31.4479 31.895C31.9419 31.648 32.1419 31.047 31.8949 30.553H31.8939ZM22.6179 26L24.9999 21.236L27.3819 26H22.6179Z" fill="white"/>
</g>
<defs>
<clipPath id="clip0_161_416">
<rect width="32" height="32" fill="white"/>
</clipPath>
</defs>
</svg>
