<svg width="32" height="32" viewBox="0 0 32 32" fill="none" xmlns="http://www.w3.org/2000/svg">
<g clip-path="url(#clip0_161_420)">
<path d="M10 24V0H6V24H1L8 31L15 24H10Z" fill="white"/>
<path d="M28.9998 32H20.9998C20.6308 32 20.2918 31.797 20.1178 31.472C19.9438 31.147 19.9628 30.752 20.1678 30.445L27.1308 20H20.9998C20.4478 20 19.9998 19.552 19.9998 19C19.9998 18.448 20.4478 18 20.9998 18H28.9998C29.3688 18 29.7078 18.203 29.8818 18.528C30.0558 18.853 30.0368 19.248 29.8318 19.555L22.8688 30H28.9998C29.5518 30 29.9998 30.448 29.9998 31C29.9998 31.552 29.5518 32 28.9998 32Z" fill="white"/>
<path d="M31.8939 12.553L25.8939 0.553C25.7249 0.214 25.3779 0 24.9999 0C24.6219 0 24.2749 0.214 24.1049 0.553L18.1049 12.553C17.8579 13.047 18.0579 13.648 18.5519 13.895C18.6959 13.967 18.8479 14.001 18.9989 14.001C19.3659 14.001 19.7189 13.798 19.8939 13.448L21.6179 10.001H28.3819L30.1059 13.448C30.3529 13.942 30.9539 14.142 31.4479 13.895C31.9419 13.648 32.1419 13.047 31.8949 12.553H31.8939ZM22.6179 8L24.9999 3.236L27.3819 8H22.6179Z" fill="white"/>
</g>
<defs>
<clipPath id="clip0_161_420">
<rect width="32" height="32" fill="white"/>
</clipPath>
</defs>
</svg>
